<?xml version="1.0" encoding="UTF-8" standalone="no"?>
<!-- Created with Inkscape (http://www.inkscape.org/) -->

<svg
   xmlns:dc="http://purl.org/dc/elements/1.1/"
   xmlns:cc="http://creativecommons.org/ns#"
   xmlns:rdf="http://www.w3.org/1999/02/22-rdf-syntax-ns#"
   xmlns:svg="http://www.w3.org/2000/svg"
   xmlns="http://www.w3.org/2000/svg"
   xmlns:sodipodi="http://sodipodi.sourceforge.net/DTD/sodipodi-0.dtd"
   xmlns:inkscape="http://www.inkscape.org/namespaces/inkscape"
   width="800"
   height="600"
   viewBox="0 0 211.66666 158.75"
   version="1.1"
   id="svg497"
   inkscape:version="0.92.3 (2405546, 2018-03-11)"
   sodipodi:docname="modele.svg">
  <defs
     id="defs491">
    <marker
       inkscape:stockid="Arrow2Mstart"
       orient="auto"
       refY="0"
       refX="0"
       id="Arrow2Mstart"
       style="overflow:visible"
       inkscape:isstock="true">
      <path
         id="path5213"
         style="fill:#f30800;fill-opacity:1;fill-rule:evenodd;stroke:#f30800;stroke-width:0.625;stroke-linejoin:round;stroke-opacity:1"
         d="M 8.7185878,4.0337352 -2.2072895,0.01601326 8.7185884,-4.0017078 c -1.7454984,2.3720609 -1.7354408,5.6174519 -6e-7,8.035443 z"
         transform="scale(0.6)"
         inkscape:connector-curvature="0" />
    </marker>
  </defs>
  <sodipodi:namedview
     id="base"
     pagecolor="#ffffff"
     bordercolor="#666666"
     borderopacity="1.0"
     inkscape:pageopacity="0.0"
     inkscape:pageshadow="2"
     inkscape:zoom="1.1569609"
     inkscape:cx="285.41001"
     inkscape:cy="279.74033"
     inkscape:document-units="mm"
     inkscape:current-layer="layer1"
     showgrid="false"
     units="px"
     inkscape:snap-grids="true"
     inkscape:window-width="1920"
     inkscape:window-height="1013"
     inkscape:window-x="-9"
     inkscape:window-y="-9"
     inkscape:window-maximized="1" />
  <metadata
     id="metadata494">
    <rdf:RDF>
      <cc:Work
         rdf:about="">
        <dc:format>image/svg+xml</dc:format>
        <dc:type
           rdf:resource="http://purl.org/dc/dcmitype/StillImage" />
        <dc:title />
      </cc:Work>
    </rdf:RDF>
  </metadata>
  <g
     inkscape:label="Calque 1"
     inkscape:groupmode="layer"
     id="layer1"
     transform="translate(0,-138.24998)">
    <ellipse
       style="opacity:1;fill:#ffffff;fill-opacity:1;stroke:#00dc57;stroke-width:0.79375;stroke-miterlimit:4;stroke-dasharray:none;stroke-opacity:1"
       id="path4572-9-6-4-0-5"
       cx="57.743782"
       cy="245.54514"
       rx="50.80497"
       ry="30.927109" />
    <ellipse
       style="opacity:1;fill:none;fill-opacity:1;stroke:#000000;stroke-width:0.52958536;stroke-miterlimit:4;stroke-dasharray:none;stroke-opacity:1"
       id="path4570"
       cx="106.19183"
       cy="241.29808"
       rx="104.86343"
       ry="52.761913" />
    <ellipse
       style="opacity:1;fill:none;fill-opacity:1;stroke:#d02020;stroke-width:0.79375;stroke-miterlimit:4;stroke-dasharray:none;stroke-opacity:1"
       id="path4572-9-6-4-0"
       cx="168.62469"
       cy="229.21167"
       rx="31.238409"
       ry="28.626511" />
    <rect
       style="opacity:1;fill:none;fill-opacity:1;stroke:#3133bf;stroke-width:0.79375;stroke-miterlimit:4;stroke-dasharray:none;stroke-opacity:1"
       id="rect4518-1-6"
       width="57.152496"
       height="42.542454"
       x="73.254608"
       y="139.15814" />
    <rect
       style="opacity:1;fill:none;fill-opacity:1;stroke:#3131bf;stroke-width:0.52916667;stroke-miterlimit:4;stroke-dasharray:none;stroke-opacity:1"
       id="rect4518-1-6-9"
       width="44.676556"
       height="32.75174"
       x="76.445213"
       y="141.95059" />
    <rect
       style="opacity:1;fill:none;fill-opacity:1;stroke:#3131bf;stroke-width:0.26458333;stroke-miterlimit:4;stroke-dasharray:none;stroke-opacity:1"
       id="rect4518-1-6-9-6"
       width="38.465084"
       height="20.766811"
       x="79.314362"
       y="146.36143" />
    <path
       transform="matrix(-1.5626345,0.18108625,-0.32806219,-0.87461669,266.23944,326.39861)"
       inkscape:transform-center-y="2.0251034"
       inkscape:transform-center-x="-1.2270091"
       d="m 129.55772,139.51741 -4.85676,27.31095 -26.080353,9.4494 -21.223598,-17.86155 4.856757,-27.31095 26.080354,-9.4494 z"
       inkscape:randomized="0"
       inkscape:rounded="0"
       inkscape:flatsided="true"
       sodipodi:arg2="0.17599204"
       sodipodi:arg1="-0.34760674"
       sodipodi:r2="22.441673"
       sodipodi:r1="27.739431"
       sodipodi:cy="148.96681"
       sodipodi:cx="103.47736"
       sodipodi:sides="6"
       id="path4520-0"
       style="opacity:1;fill:#fffffe;fill-opacity:1;stroke:#00dc4e;stroke-width:0.66467088;stroke-miterlimit:4;stroke-dasharray:none;stroke-opacity:1"
       sodipodi:type="star" />
    <path
       transform="matrix(0.92131332,-0.14215332,0.19342211,0.68657705,44.07799,120.83976)"
       inkscape:transform-center-y="-1.589715"
       inkscape:transform-center-x="0.72343377"
       d="m 129.55772,139.51741 -4.85676,27.31095 -26.080353,9.4494 -21.223598,-17.86155 4.856757,-27.31095 26.080354,-9.4494 z"
       inkscape:randomized="0"
       inkscape:rounded="0"
       inkscape:flatsided="true"
       sodipodi:arg2="0.17599204"
       sodipodi:arg1="-0.34760674"
       sodipodi:r2="22.441673"
       sodipodi:r1="27.739431"
       sodipodi:cy="148.96681"
       sodipodi:cx="103.47736"
       sodipodi:sides="6"
       id="path4520-0-3"
       style="opacity:1;fill:#fffffe;fill-opacity:1;stroke:#d02020;stroke-width:0.97700305;stroke-miterlimit:4;stroke-dasharray:none;stroke-opacity:1"
       sodipodi:type="star" />
    <path
       transform="matrix(0.44183867,-0.08974256,0.09276038,0.43344169,-3.5250216,158.53164)"
       inkscape:transform-center-y="-1.0036083"
       inkscape:transform-center-x="0.34694157"
       d="m 129.55772,139.51741 -4.85676,27.31095 -26.080353,9.4494 -21.223598,-17.86155 4.856757,-27.31095 26.080354,-9.4494 z"
       inkscape:randomized="0"
       inkscape:rounded="0"
       inkscape:flatsided="true"
       sodipodi:arg2="0.17599204"
       sodipodi:arg1="-0.34760674"
       sodipodi:r2="22.441673"
       sodipodi:r1="27.739431"
       sodipodi:cy="148.96681"
       sodipodi:cx="103.47736"
       sodipodi:sides="6"
       id="path4520-0-6-3"
       style="opacity:1;fill:#fffffe;fill-opacity:1;stroke:#00dc58;stroke-width:1.50347257;stroke-miterlimit:4;stroke-dasharray:none;stroke-opacity:1"
       sodipodi:type="star" />
    <g
       id="g5163"
       transform="matrix(0.92062459,0,0,0.82601515,6.1005148,25.508332)">
      <path
         sodipodi:type="star"
         style="opacity:1;fill:#fffffe;fill-opacity:1;stroke:#00dc58;stroke-width:1.50347257;stroke-miterlimit:4;stroke-dasharray:none;stroke-opacity:1"
         id="path4520-0-6-3-9"
         sodipodi:sides="6"
         sodipodi:cx="103.47736"
         sodipodi:cy="148.96681"
         sodipodi:r1="27.739431"
         sodipodi:r2="22.441673"
         sodipodi:arg1="-0.34760674"
         sodipodi:arg2="0.17599204"
         inkscape:flatsided="true"
         inkscape:rounded="0"
         inkscape:randomized="0"
         d="m 129.55772,139.51741 -4.85676,27.31095 -26.080353,9.4494 -21.223598,-17.86155 4.856757,-27.31095 26.080354,-9.4494 z"
         inkscape:transform-center-x="0.32950454"
         inkscape:transform-center-y="-0.84704932"
         transform="matrix(0.41963298,-0.07574312,0.08809848,0.36582673,24.879362,176.6803)" />
    </g>
    <path
       sodipodi:type="star"
       style="opacity:1;fill:#fffffe;fill-opacity:1;stroke:#00dc4e;stroke-width:1.50347257;stroke-miterlimit:4;stroke-dasharray:none;stroke-opacity:1"
       id="use5165"
       sodipodi:sides="6"
       sodipodi:cx="103.47736"
       sodipodi:cy="148.96681"
       sodipodi:r1="27.739431"
       sodipodi:r2="22.441673"
       sodipodi:arg1="-0.34760674"
       sodipodi:arg2="0.17599204"
       inkscape:flatsided="true"
       inkscape:rounded="0"
       inkscape:randomized="0"
       d="m 129.55772,139.51741 -4.85676,27.31095 -26.080353,9.4494 -21.223598,-17.86155 4.856757,-27.31095 26.080354,-9.4494 z"
       inkscape:transform-center-x="0.32950454"
       inkscape:transform-center-y="-1.0121431"
       transform="matrix(0.41963298,-0.09050595,0.08809848,0.43712877,-26.629634,159.23959)" />
    <ellipse
       style="opacity:1;fill:none;fill-opacity:1;stroke:#00dc4e;stroke-width:0.52916667;stroke-miterlimit:4;stroke-dasharray:none;stroke-opacity:1"
       id="path4572-9-6-4"
       cx="70.574532"
       cy="262.85846"
       rx="11.967194"
       ry="8.4594126" />
    <ellipse
       style="opacity:1;fill:none;fill-opacity:1;stroke:#00dc4e;stroke-width:0.52916667;stroke-miterlimit:4;stroke-dasharray:none;stroke-opacity:1"
       id="path4572-9-6-4-4"
       cx="43.002285"
       cy="263.55377"
       rx="11.967194"
       ry="8.4594126" />
    <ellipse
       style="opacity:1;fill:none;fill-opacity:1;stroke:#00dc4e;stroke-width:0.52916667;stroke-miterlimit:4;stroke-dasharray:none;stroke-opacity:1"
       id="path4572-9-6-4-6"
       cx="83.018295"
       cy="245.23799"
       rx="11.967194"
       ry="8.4594126" />
    <ellipse
       style="opacity:1;fill:none;fill-opacity:1;stroke:#00dc4e;stroke-width:0.52916667;stroke-miterlimit:4;stroke-dasharray:none;stroke-opacity:1"
       id="path4572-9-6-4-6-2"
       cx="28.469105"
       cy="246.63156"
       rx="11.967194"
       ry="8.4594126" />
    <text
       xml:space="preserve"
       style="font-style:normal;font-weight:normal;font-size:10.58333302px;line-height:1.25;font-family:sans-serif;letter-spacing:0px;word-spacing:0px;fill:#000000;fill-opacity:1;stroke:none;stroke-width:0.26458332"
       x="161.85583"
       y="208.80548"
       id="text5233"><tspan
         sodipodi:role="line"
         id="tspan5231"
         x="161.85583"
         y="218.46098"
         style="stroke-width:0.26458332" /></text>
    <text
       xml:space="preserve"
       style="font-style:normal;font-weight:normal;font-size:4.58611107px;line-height:1.25;font-family:sans-serif;letter-spacing:0px;word-spacing:0px;fill:#000000;fill-opacity:1;stroke:none;stroke-width:0.26458332"
       x="151.50343"
       y="205.42104"
       id="text5237"><tspan
         sodipodi:role="line"
         id="tspan5235"
         x="151.50343"
         y="209.60509"
         style="stroke-width:0.26458332" /></text>
    <text
       xml:space="preserve"
       style="font-style:normal;font-weight:normal;font-size:4.58611107px;line-height:1.25;font-family:sans-serif;letter-spacing:0px;word-spacing:0px;fill:#000000;fill-opacity:1;stroke:none;stroke-width:0.26458332"
       x="148.09436"
       y="209.43848"
       id="text5241"><tspan
         sodipodi:role="line"
         id="tspan5239"
         x="148.09436"
         y="209.43848"
         style="stroke-width:0.26458332">APP. téléphoniuqe</tspan></text>
    <text
       xml:space="preserve"
       style="font-style:normal;font-weight:normal;font-size:4.58611107px;line-height:1.25;font-family:sans-serif;letter-spacing:0px;word-spacing:0px;fill:#000000;fill-opacity:1;stroke:none;stroke-width:0.26458332"
       x="150.62831"
       y="235.62247"
       id="text5245"><tspan
         sodipodi:role="line"
         id="tspan5243"
         x="150.62831"
         y="235.62247"
         style="stroke-width:0.26458332">   Transfert </tspan><tspan
         sodipodi:role="line"
         x="150.62831"
         y="241.3551"
         style="stroke-width:0.26458332"
         id="tspan5247">d'informations</tspan></text>
    <text
       xml:space="preserve"
       style="font-style:normal;font-weight:normal;font-size:4.58611107px;line-height:1.25;font-family:sans-serif;letter-spacing:0px;word-spacing:0px;fill:#000000;fill-opacity:1;stroke:none;stroke-width:0.26458332"
       x="42.79533"
       y="234.49628"
       id="text5251"><tspan
         sodipodi:role="line"
         id="tspan5249"
         x="42.79533"
         y="234.49628"
         style="stroke-width:0.26458332">Famille</tspan></text>
    <text
       xml:space="preserve"
       style="font-style:normal;font-weight:normal;font-size:4.58611107px;line-height:1.25;font-family:sans-serif;letter-spacing:0px;word-spacing:0px;fill:#000000;fill-opacity:1;stroke:none;stroke-width:0.26458332"
       x="23.931601"
       y="214.22479"
       id="text5255"><tspan
         sodipodi:role="line"
         x="23.931601"
         y="218.40884"
         style="stroke-width:0.26458332"
         id="tspan5257" /></text>
    <text
       xml:space="preserve"
       style="font-style:normal;font-weight:normal;font-size:4.58611107px;line-height:1.25;font-family:sans-serif;letter-spacing:0px;word-spacing:0px;fill:#000000;fill-opacity:1;stroke:none;stroke-width:0.26458332"
       x="21.116116"
       y="215.91409"
       id="text5263"><tspan
         sodipodi:role="line"
         id="tspan5261"
         x="21.116116"
         y="220.09814"
         style="stroke-width:0.26458332" /></text>
    <text
       xml:space="preserve"
       style="font-style:normal;font-weight:normal;font-size:4.58611107px;line-height:1.25;font-family:sans-serif;letter-spacing:0px;word-spacing:0px;fill:#000000;fill-opacity:1;stroke:none;stroke-width:0.26458332"
       x="20.271471"
       y="215.06944"
       id="text5267"><tspan
         sodipodi:role="line"
         id="tspan5265"
         x="20.271471"
         y="215.06944"
         style="stroke-width:0.26458332">Parent 1</tspan></text>
    <text
       xml:space="preserve"
       style="font-style:normal;font-weight:normal;font-size:4.58611107px;line-height:1.25;font-family:sans-serif;letter-spacing:0px;word-spacing:0px;fill:#000000;fill-opacity:1;stroke:none;stroke-width:0.26458332"
       x="46.737003"
       y="213.38016"
       id="text5271"><tspan
         sodipodi:role="line"
         id="tspan5269"
         x="46.737003"
         y="213.38016"
         style="stroke-width:0.26458332">Parent 2</tspan></text>
    <text
       xml:space="preserve"
       style="font-style:normal;font-weight:normal;font-size:4.58611107px;line-height:1.25;font-family:sans-serif;letter-spacing:0px;word-spacing:0px;fill:#000000;fill-opacity:1;stroke:none;stroke-width:0.26458332"
       x="73.765633"
       y="211.12778"
       id="text5275"><tspan
         sodipodi:role="line"
         id="tspan5273"
         x="73.765633"
         y="211.12778"
         style="stroke-width:0.26458332">Enfant</tspan></text>
    <text
       xml:space="preserve"
       style="font-style:normal;font-weight:normal;font-size:4.58611107px;line-height:1.25;font-family:sans-serif;letter-spacing:0px;word-spacing:0px;fill:#000000;fill-opacity:1;stroke:none;stroke-width:0.26458332"
       x="18.582182"
       y="247.16594"
       id="text5279"><tspan
         sodipodi:role="line"
         id="tspan5277"
         x="18.582182"
         y="247.16594"
         style="stroke-width:0.26458332">Courses</tspan></text>
    <text
       xml:space="preserve"
       style="font-style:normal;font-weight:normal;font-size:4.58611107px;line-height:1.25;font-family:sans-serif;letter-spacing:0px;word-spacing:0px;fill:#000000;fill-opacity:1;stroke:none;stroke-width:0.26458332"
       x="73.484085"
       y="244.91356"
       id="text5283"><tspan
         sodipodi:role="line"
         id="tspan5281"
         x="73.484085"
         y="244.91356"
         style="stroke-width:0.26458332">commu-</tspan><tspan
         sodipodi:role="line"
         x="73.484085"
         y="250.64619"
         style="stroke-width:0.26458332"
         id="tspan5285">nication</tspan></text>
    <text
       xml:space="preserve"
       style="font-style:normal;font-weight:normal;font-size:4.58611107px;line-height:1.25;font-family:sans-serif;letter-spacing:0px;word-spacing:0px;fill:#000000;fill-opacity:1;stroke:none;stroke-width:0.26458332"
       x="34.242565"
       y="262.16016"
       id="text5289"><tspan
         sodipodi:role="line"
         id="tspan5287"
         x="34.242565"
         y="262.16016"
         style="stroke-width:0.26458332">Temps</tspan></text>
    <text
       xml:space="preserve"
       style="font-style:normal;font-weight:normal;font-size:4.58611107px;line-height:1.25;font-family:sans-serif;letter-spacing:0px;word-spacing:0px;fill:#000000;fill-opacity:1;stroke:none;stroke-width:0.26458332"
       x="62.910751"
       y="263.35468"
       id="text5293"><tspan
         sodipodi:role="line"
         id="tspan5291"
         x="62.910751"
         y="263.35468"
         style="stroke-width:0.26458332">Décision</tspan></text>
    <text
       xml:space="preserve"
       style="font-style:normal;font-weight:normal;font-size:4.58611107px;line-height:1.25;font-family:sans-serif;letter-spacing:0px;word-spacing:0px;fill:#000000;fill-opacity:1;stroke:none;stroke-width:0.26458332"
       x="77.842102"
       y="179.54002"
       id="text5297"><tspan
         sodipodi:role="line"
         id="tspan5295"
         x="77.842102"
         y="179.54002"
         style="stroke-width:0.26458332">Placard connécté</tspan></text>
    <text
       xml:space="preserve"
       style="font-style:normal;font-weight:normal;font-size:4.58611107px;line-height:1.25;font-family:sans-serif;letter-spacing:0px;word-spacing:0px;fill:#000000;fill-opacity:1;stroke:none;stroke-width:0.26458332"
       x="80.231117"
       y="172.1739"
       id="text5301"><tspan
         sodipodi:role="line"
         id="tspan5299"
         x="80.231117"
         y="172.1739"
         style="stroke-width:0.26458332">balance connécté</tspan></text>
    <text
       xml:space="preserve"
       style="font-style:normal;font-weight:normal;font-size:4.58611107px;line-height:1.25;font-family:sans-serif;letter-spacing:0px;word-spacing:0px;fill:#000000;fill-opacity:1;stroke:none;stroke-width:0.26458332"
       x="82.620132"
       y="164.60867"
       id="text5305"><tspan
         sodipodi:role="line"
         id="tspan5303"
         x="82.620132"
         y="164.60867"
         style="stroke-width:0.26458332">Seveur </tspan></text>
    <flowRoot
       xml:space="preserve"
       id="flowRoot5307"
       style="fill:black;fill-opacity:1;stroke:none;font-family:sans-serif;font-style:normal;font-weight:normal;font-size:17.33333333px;line-height:1.25;letter-spacing:0px;word-spacing:0px"><flowRegion
         id="flowRegion5309"><rect
           id="rect5311"
           width="249.81206"
           height="299.47348"
           x="518.43524"
           y="159.81911" /></flowRegion><flowPara
         id="flowPara5313" /></flowRoot>    <text
       xml:space="preserve"
       style="font-style:normal;font-weight:normal;font-size:4.58611107px;line-height:1.25;font-family:sans-serif;letter-spacing:0px;word-spacing:0px;fill:#000000;fill-opacity:1;stroke:none;stroke-width:0.26458332"
       x="85.986771"
       y="283.50739"
       id="text6779"><tspan
         sodipodi:role="line"
         id="tspan6777"
         x="85.986771"
         y="287.69144"
         style="stroke-width:0.26458332" /></text>
    <text
       xml:space="preserve"
       style="font-style:normal;font-weight:normal;font-size:4.58611107px;line-height:1.25;font-family:sans-serif;letter-spacing:0px;word-spacing:0px;fill:#000000;fill-opacity:1;stroke:none;stroke-width:0.26458332"
       x="62.660572"
       y="282.59262"
       id="text6783"><tspan
         sodipodi:role="line"
         id="tspan6781"
         x="62.660572"
         y="282.59262"
         style="stroke-width:0.26458332">Placard coonécté pour faciliter les courses</tspan></text>
    <path
       style="fill:none;fill-rule:evenodd;stroke:#000000;stroke-width:0.26458332px;stroke-linecap:butt;stroke-linejoin:miter;stroke-opacity:1"
       d="m 156.88012,160.47311 v 0"
       id="path6797"
       inkscape:connector-type="polyline"
       inkscape:connector-curvature="0" />
    <text
       xml:space="preserve"
       style="font-style:normal;font-weight:normal;font-size:1.41111112px;line-height:1.25;font-family:sans-serif;letter-spacing:0px;word-spacing:0px;fill:#000000;fill-opacity:1;stroke:none;stroke-width:0.26458332"
       x="146.81784"
       y="162.30261"
       id="text6830"><tspan
         sodipodi:role="line"
         id="tspan6828"
         x="146.81784"
         y="162.30261"
         style="stroke-width:0.26458332;font-size:2.82222222px">alimenter la base de donnée</tspan></text>
    <text
       xml:space="preserve"
       style="font-style:normal;font-weight:normal;font-size:3.175px;line-height:1.25;font-family:sans-serif;letter-spacing:0px;word-spacing:0px;fill:#000000;fill-opacity:1;stroke:none;stroke-width:0.26458332;"
       x="109.99903"
       y="220.6181"
       id="text6834"><tspan
         sodipodi:role="line"
         id="tspan6832"
         x="109.99903"
         y="221.9055"
         style="stroke-width:0.26458332;font-size:3.175px;" /></text>
    <text
       xml:space="preserve"
       style="font-style:normal;font-weight:normal;font-size:1.41111112px;line-height:1.25;font-family:sans-serif;letter-spacing:0px;word-spacing:0px;fill:#000000;fill-opacity:1;stroke:none;stroke-width:0.26458332"
       x="108.8556"
       y="219.01729"
       id="text6838"><tspan
         sodipodi:role="line"
         id="tspan6836"
         x="108.8556"
         y="219.01729"
         style="stroke-width:0.26458332;font-size:3.175px">Alerter</tspan></text>
    <text
       xml:space="preserve"
       style="font-style:normal;font-weight:normal;font-size:1.41111112px;line-height:1.25;font-family:sans-serif;letter-spacing:0px;word-spacing:0px;fill:#000000;fill-opacity:1;stroke:none;stroke-width:0.26458332"
       x="16.236864"
       y="175.10916"
       id="text6842"><tspan
         sodipodi:role="line"
         id="tspan6840"
         x="16.236864"
         y="175.10916"
         style="font-size:3.17499995px;stroke-width:0.26458332">mise à jour de la B-D</tspan></text>
    <path
       style="fill:none;stroke:#000000;stroke-width:0.26458332px;stroke-linecap:butt;stroke-linejoin:miter;stroke-opacity:1"
       d="m 117.54575,157.04279 38.19093,8.91884 c 0,0.45738 -0.0647,0.91935 0,1.37213 0.0152,0.10672 0.18048,0.13226 0.22869,0.22869 0.0301,0.0601 0,0.79516 0,0.91475 0,0.2394 -0.0465,1.18616 0,1.37213 0.0413,0.16536 0.17478,0.29567 0.22869,0.45737 0.073,0.21914 -0.0706,0.93159 0,1.14345 0.0341,0.10227 0.19459,0.12641 0.22869,0.22868 0.0482,0.14464 -0.037,0.30947 0,0.45738 0.0413,0.16536 0.17478,0.29567 0.22868,0.45738 0.0241,0.0723 -0.0341,0.1605 0,0.22868 0.0482,0.0964 0.18048,0.13227 0.22869,0.22869 0.0341,0.0682 0,0.15246 0,0.22869 0,0.15246 -0.037,0.30947 0,0.45738 0.0413,0.16536 0.17479,0.29567 0.22869,0.45737 0.0241,0.0723 0,0.15246 0,0.22869 0,0.38115 0,0.7623 0,1.14344 0,0.0762 0,0.15246 0,0.22869 0,0.0762 -0.0341,0.16051 0,0.22869 0.0482,0.0964 0.18048,0.13226 0.22869,0.22869 0.0682,0.13636 -0.0682,0.32101 0,0.45737 0.0482,0.0964 0.18047,0.13227 0.22869,0.22869 0.0682,0.13637 -0.10781,0.34957 0,0.45738 0.0539,0.0539 0.17478,-0.0539 0.22868,0 2.2e-4,2.2e-4 -3.4e-4,0.68503 0,0.68606 0.0341,0.10228 0.18048,0.13227 0.22869,0.22869 0.0341,0.0682 -0.0539,0.17479 0,0.22869 0.0539,0.0539 0.17479,-0.0539 0.22869,0 0.11435,0.11434 -0.11434,0.57172 0,0.68606 0.0539,0.0539 0.17479,-0.0539 0.22869,0 0.0539,0.0539 0,0.15246 0,0.22869 0,0.0762 0,0.15246 0,0.22869 0,0.0762 0,0.15246 0,0.22869 0,0.0762 -0.0539,0.17479 0,0.22869 0.0539,0.0539 0.17479,-0.0539 0.22869,0 0.11434,0.11434 -0.11435,0.57172 0,0.68606 0.0539,0.0539 0.17478,-0.0539 0.22869,0 0.15301,0.15301 -0.15302,0.30437 0,0.45738 0.0539,0.0539 0.15245,0 0.22868,0 0.0762,0.0762 0.16889,0.13899 0.22869,0.22869 1.06413,1.59619 -1.01477,-1.12434 0.68607,1.14344 0.0647,0.0862 0.18047,0.13226 0.22868,0.22869 0.0341,0.0682 -0.0241,0.15637 0,0.22868 0.0539,0.16171 0.15246,0.30492 0.22869,0.45738 0.0762,0.15246 0.10816,0.33685 0.22869,0.45738 0.0539,0.0539 0.17479,-0.0539 0.22869,0 0.12053,0.12053 0.17479,0.29567 0.22869,0.45737 0.0241,0.0723 -0.0539,0.17479 0,0.22869 0.0539,0.0539 0.17478,-0.0539 0.22869,0 0.0539,0.0539 -0.0341,0.16051 0,0.22869 0.0482,0.0964 0.18047,0.13227 0.22868,0.22869 0.0453,0.0907 -0.0468,0.63931 0,0.68606 0.0539,0.0539 0.17479,-0.0539 0.22869,0 0.0539,0.0539 -0.0539,0.17479 0,0.22869 0.0539,0.0539 0.17479,-0.0539 0.22869,0 0.0539,0.0539 -0.0341,0.16051 0,0.22869 0.0482,0.0964 0.18048,0.13226 0.22869,0.22869 0.0915,0.18295 -0.0915,0.50311 0,0.68606 0.0964,0.19285 0.36095,0.26453 0.45738,0.45738 0.0453,0.0907 -0.0468,0.63931 0,0.68606 0.0539,0.0539 0.17478,-0.0539 0.22868,0 0.0539,0.0539 -0.0539,0.17479 0,0.22869 0.0539,0.0539 0.17479,-0.0539 0.22869,0 0.0539,0.0539 0,0.15246 0,0.22869 0,0.0762 0,0.15246 0,0.22869 0,0.60983 -0.0762,-0.0762 0.22869,0.22869 0.0539,0.0539 0,0.15246 0,0.22868 0,0.38115 0,0.7623 0,1.14345 0,0.0762 0.0539,0.17478 0,0.22868 -0.0539,0.0539 -0.15246,0 -0.22869,0 -0.0762,0 -0.15246,0 -0.22869,0 -0.45737,0 -0.91475,0 -1.37213,0 -0.0762,0 -0.17478,-0.0539 -0.22868,0 -0.0539,0.0539 0.0539,0.17479 0,0.22869 -0.10781,0.10781 -0.34958,-0.1078 -0.45738,0 -0.0539,0.0539 -0.0539,0.17479 0,0.22869 0.0539,0.0539 0.15246,0 0.22869,0 0.0762,0 0.15246,0 0.22869,0 0.60983,0 1.21967,0 1.8295,0"
       id="path78"
       inkscape:connector-curvature="0" />
    <path
       style="fill:none;stroke:#000000;stroke-width:0.26458332px;stroke-linecap:butt;stroke-linejoin:miter;stroke-opacity:1"
       d="m 29.500779,237.54104 c 0.22869,-0.30492 0.457378,-0.60983 0.686065,-0.91475 0.07623,0 0.160507,0.0341 0.22869,0 0.192847,-0.0964 0.26453,-0.36096 0.457377,-0.45738 0.06818,-0.0341 0.174784,0.0539 0.228687,0 0.0539,-0.0539 -0.0539,-0.17478 0,-0.22869 0.107805,-0.1078 0.349571,0.10781 0.457378,0 0.0539,-0.0539 -0.0539,-0.17478 0,-0.22868 0.0539,-0.0539 0.160504,0.0341 0.228687,0 0.09642,-0.0482 0.132265,-0.18048 0.228687,-0.22869 0.136364,-0.0682 0.321014,0.0682 0.457378,0 0.951746,-0.47588 -0.244475,0.0158 0.228687,-0.45738 0.0539,-0.0539 0.174786,0.0539 0.22869,0 0.0539,-0.0539 -0.0539,-0.17479 0,-0.22869 0.0539,-0.0539 0.174784,0.0539 0.228687,0 0.107805,-0.1078 -0.107804,-0.34957 0,-0.45737 0.336492,0 0.174787,0.0539 0.457377,-0.22869 0.07623,-0.0762 0.152459,-0.15246 0.228688,-0.22869 0,-0.0762 -0.0539,-0.17479 0,-0.22869 0.107804,-0.1078 0.349573,0.10781 0.457377,0 0.225594,-0.2256 -0.468601,-0.45738 0.228687,-0.45738"
       id="path80"
       inkscape:connector-curvature="0" />
    <path
       style="fill:none;stroke:#000000;stroke-width:0.26458332px;stroke-linecap:butt;stroke-linejoin:miter;stroke-opacity:1"
       d="m 40.028328,208.50092 c 0.149831,0.98989 0.226592,1.99363 0.449487,2.96966 0.01696,0.0743 0.152458,0 0.228688,0 0.07623,0 0.15246,0 0.228689,0 0.686065,0 1.37213,0 2.058194,0 0.272299,0 0.910045,0.0126 0.914752,0 0.42473,-1.14176 0.714073,-2.32941 1.071107,-3.49412"
       id="path82"
       inkscape:connector-curvature="0" />
    <path
       style="fill:none;stroke:#000000;stroke-width:0.26458332px;stroke-linecap:butt;stroke-linejoin:miter;stroke-opacity:1"
       d="m 66.660275,207.37746 c 0.343813,1.13569 0.556308,2.31975 1.031439,3.40706 0.06105,0.1397 0.304916,0 0.457377,0 0.762293,0 1.524587,0 2.286881,0 0.513167,0 1.37211,-5.3e-4 1.372129,0 0.0581,1.22944 -0.03615,2.46136 -0.05423,3.69204"
       id="path84"
       inkscape:connector-curvature="0" />
    <path
       style="fill:none;stroke:#000000;stroke-width:0.26458332px;stroke-linecap:butt;stroke-linejoin:miter;stroke-opacity:1"
       d="m 74.323672,238.91317 c -0.304919,-0.30492 -0.609836,-0.60983 -0.914752,-0.91475 -0.07623,0 -0.194598,0.0682 -0.22869,0 -0.06818,-0.13637 0,-0.30492 0,-0.45738 -0.07623,-0.15246 -0.134136,-0.31555 -0.228687,-0.45738 -0.350256,-0.52538 -0.130628,0.0981 -0.686065,-0.45737 -0.892511,-0.89251 0.05294,-0.12282 -0.228687,-0.68607 -0.101349,-0.20269 -0.54728,-0.47788 -0.686067,-0.68606 -0.09455,-0.14183 -0.134136,-0.31555 -0.228688,-0.45738 -0.0598,-0.0897 -0.180475,-0.13226 -0.228687,-0.22869 -0.03409,-0.0682 0.03409,-0.1605 0,-0.22868 -0.04821,-0.0964 -0.152458,-0.15246 -0.22869,-0.22869 -0.07623,-0.0762 -0.132262,-0.18048 -0.228687,-0.22869 -0.06818,-0.0341 -0.174787,0.0539 -0.228687,0 -0.107805,-0.10781 0.06818,-0.32101 0,-0.45738 -0.04821,-0.0964 -0.180478,-0.13226 -0.22869,-0.22869 -0.03409,-0.0682 0.03409,-0.1605 0,-0.22868 -0.04821,-0.0964 -0.180475,-0.13227 -0.228688,-0.22869 -0.03409,-0.0682 0.03409,-0.16051 0,-0.22869 -0.04821,-0.0964 -0.180477,-0.13227 -0.228687,-0.22869 -0.03409,-0.0682 0.03409,-0.1605 0,-0.22869 -0.09642,-0.19284 -0.360953,-0.26453 -0.457377,-0.45737 -0.09148,-0.18295 0.09147,-0.50312 0,-0.68607 -0.475872,-0.95174 0.01579,0.24448 -0.457378,-0.22869 -0.153011,-0.15301 0.153014,-0.30436 0,-0.45737 -0.0539,-0.0539 -0.174783,0.0539 -0.228687,0 -0.0539,-0.0539 0.0539,-0.17479 0,-0.22869 -0.0539,-0.0539 -0.160507,0.0341 -0.228687,0 -0.951746,-0.47587 0.244475,0.0158 -0.22869,-0.45738 -0.0539,-0.0539 -0.174787,0.0539 -0.228687,0 -0.0539,-0.0539 0.0539,-0.17478 0,-0.22869 -0.0539,-0.0539 -0.174787,0.0539 -0.228688,0 -0.107804,-0.1078 0.107805,-0.34957 0,-0.45737 -0.107804,-0.10781 -0.349573,0.1078 -0.457377,0 -0.0539,-0.0539 0.0539,-0.17479 0,-0.22869 -0.0539,-0.0539 -0.174786,0.0539 -0.228687,0 -0.152096,-0.1521 0.152095,-0.30528 0,-0.45738 -0.0539,-0.0539 -0.174787,0.0539 -0.22869,0 -0.0539,-0.0539 0,-0.15246 0,-0.22868 -0.07623,0 -0.174787,0.0539 -0.228688,0 -0.107804,-0.10781 0.107805,-0.34958 0,-0.45738 -0.0539,-0.0539 -0.174786,0.0539 -0.228687,0 -0.0539,-0.0539 0.0539,-0.17479 0,-0.22869 -0.153014,-0.15301 -0.304366,0.15301 -0.457377,0 -0.0539,-0.0539 0.03409,-0.16051 0,-0.22869 -0.04821,-0.0964 -0.180478,-0.13226 -0.228688,-0.22869 -0.15246,-0.30491 0.228688,-0.22868 -0.228689,-0.22868 1.049444,-1.31181 0.56961,-0.7983 1.37213,-1.60082 0.152459,-0.15246 0.277979,-0.33778 0.457377,-0.45738 0.06343,-0.0423 0.174785,0.0539 0.228688,0 0.120529,-0.12053 0.108159,-0.33684 0.228688,-0.45737 0.120529,-0.12053 0.31555,-0.13414 0.457376,-0.22869 0.0897,-0.0598 0.132265,-0.18048 0.228689,-0.22869 0.06818,-0.0341 0.160506,0.0341 0.228688,0 0.09642,-0.0482 0.152459,-0.15246 0.228688,-0.22869 0.07623,-0.0762 0.168889,-0.13899 0.228688,-0.22869 0.09455,-0.14182 0.08686,-0.36282 0.228689,-0.45737 0.126853,-0.0846 0.312741,0.0482 0.457376,0 0.154856,-0.0516 0.511372,-0.59872 0.686065,-0.68607 0.06818,-0.0341 0.174786,0.0539 0.228688,0 0.278538,-0.27854 0.107123,-0.51094 0.457376,-0.68606 0.404829,-0.20242 0.07815,0.34016 0.457377,-0.22869 0.139269,-0.2089 0.195204,-0.55498 0.457376,-0.68607 0.06818,-0.0341 0.174786,0.0539 0.228689,0 0.304917,-0.30491 -0.485121,-0.21944 0.228688,-0.45737 0.144635,-0.0482 0.312741,0.0482 0.457376,0 0.102273,-0.0341 0.152459,-0.15246 0.228688,-0.22869 0.07623,-0.0762 0.180477,-0.13226 0.228689,-0.22869 0.03409,-0.0682 -0.0539,-0.17478 0,-0.22869 0.107804,-0.1078 0.349571,0.10781 0.457376,0 0.0539,-0.0539 -0.0539,-0.17478 0,-0.22868 0.0539,-0.0539 0.174786,0.0539 0.228688,0 0.0539,-0.0539 -0.0539,-0.17479 0,-0.22869 0.0539,-0.0539 0.160507,0.0341 0.228689,0 0.274425,-0.13722 0.411638,-0.54885 0.686064,-0.68607 0.06818,-0.0341 0.152459,0 0.228688,0 0.07623,-0.0762 0.132265,-0.18047 0.228689,-0.22869 0.06818,-0.0341 0.174786,0.0539 0.228688,0 0.0539,-0.0539 -0.0539,-0.17478 0,-0.22868 0.152552,-0.15256 0.304824,0.15255 0.457376,0 0.0539,-0.0539 0,-0.15246 0,-0.22869 0,-0.0762 0,-0.15246 0,-0.22869"
       id="path86"
       inkscape:connector-curvature="0" />
    <path
       style="fill:none;stroke:#000000;stroke-width:0.26458332px;stroke-linecap:butt;stroke-linejoin:miter;stroke-opacity:1"
       d="m 60.373691,223.81975 c 0.697288,0 0.0031,0.23178 0.228687,0.45737 0.0539,0.0539 0.16051,-0.0341 0.22869,0 0.09642,0.0482 0.132257,0.18049 0.228687,0.22869 0.09067,0.0453 0.639315,-0.0468 0.686065,0 0.0539,0.0539 -0.0539,0.17479 0,0.22869 0.0539,0.0539 0.174787,-0.0539 0.228687,0 0.0539,0.0539 -0.0539,0.17479 0,0.22869 0.114345,0.11434 0.571722,-0.11435 0.686065,0 0.0539,0.0539 -0.0539,0.17479 0,0.22869 0.107804,0.1078 0.321013,-0.0682 0.457377,0 0.09642,0.0482 0.138987,0.16888 0.228687,0.22868 0.141827,0.0946 0.304919,0.15249 0.457377,0.22869 0.07623,0 0.160508,-0.0341 0.228688,0 0.436578,0.21829 0.36032,1.15365 1.143442,0.91476 -0.457376,0.15246 -0.904407,0.34044 -1.372129,0.45737 -0.147906,0.037 -0.304917,0 -0.457376,0 -0.609835,0 -1.219671,0 -1.829506,0 -1.524588,0 -3.049176,0 -4.573764,0 -2.286882,0 -4.573765,0 -6.860647,0 -0.533606,0 -1.067212,0 -1.600818,0 -0.381147,0 -0.764625,-0.0421 -1.143441,0 -0.312379,0.0347 -0.60361,0.18424 -0.914753,0.22869 -0.226389,0.0323 -0.457376,0 -0.686064,0 -0.457377,0 -0.914753,0 -1.37213,0 -0.457376,0 -0.914752,0 -1.372129,0 -0.07623,0 -0.152459,0 -0.228688,0 -0.07623,0 -0.160507,0.0341 -0.228688,0 -0.09642,-0.0482 -0.132265,-0.18047 -0.228689,-0.22869 -0.05126,-0.0256 -0.860409,0 -0.914752,0 -0.609836,0 -1.219671,0 -1.829506,0 -0.381147,0 -0.762294,0 -1.143441,0 -0.07623,0 -0.152459,0 -0.228689,0 -0.07623,0 -0.160506,-0.0341 -0.228688,0 -0.09642,0.0482 -0.132265,0.18048 -0.228688,0.22869 -0.244819,0.12241 -0.212557,-0.12241 -0.457377,0 -0.09642,0.0482 -0.132264,0.18048 -0.228688,0.22869 -0.0696,0.0348 -0.583073,0 -0.686064,0 -0.457377,0 -0.914753,0 -1.37213,0 -0.07623,0 -0.152459,0 -0.228688,0 -0.07623,0 -0.174786,0.0539 -0.228688,0 -0.107805,-0.1078 0.107804,-0.34957 0,-0.45738 -0.107805,-0.1078 -0.349572,0.10781 -0.457377,0 -0.107804,-0.1078 0.06818,-0.32101 0,-0.45737 -0.04821,-0.0964 -0.180476,-0.13227 -0.228688,-0.22869 -0.03409,-0.0682 0,-0.15246 0,-0.22869 -0.07623,-0.0762 -0.180476,-0.13226 -0.228688,-0.22869 -0.03409,-0.0682 0.0539,-0.17478 0,-0.22869 -0.0539,-0.0539 -0.174786,0.0539 -0.228688,0 -0.0539,-0.0539 0.06667,-0.26564 0,-0.22868 -1.068535,0.59235 -2.069235,1.29956 -3.103853,1.94935"
       id="path88"
       inkscape:connector-curvature="0" />
    <path
       style="fill:none;stroke:#000000;stroke-width:0.26458332px;stroke-linecap:butt;stroke-linejoin:miter;stroke-opacity:1"
       d="m 66.776962,254.92135 c 0,-0.7623 0,-1.52459 0,-2.28689 0,-0.0762 0,-0.15246 0,-0.22868 0,-0.0762 -0.0539,-0.17479 0,-0.22869 0.0539,-0.0539 0.174783,0.0539 0.228687,0 0.0539,-0.0539 -0.0539,-0.17479 0,-0.22869 0.107804,-0.10781 0.349573,0.1078 0.457377,0 0.107805,-0.10781 -0.107804,-0.34957 0,-0.45738 0.0539,-0.0539 0.160507,0.0341 0.228688,0 0.505642,-0.25282 0.07097,-0.14193 0.228687,-0.45737 0.475874,-0.95175 -0.0158,0.24447 0.457377,-0.22869 0.0539,-0.0539 -0.0539,-0.17479 0,-0.22869 0.0539,-0.0539 0.152458,0 0.228687,0 0,-0.0762 -0.0539,-0.17479 0,-0.22869 0.0539,-0.0539 0.174787,0.0539 0.22869,0 0.0539,-0.0539 -0.0539,-0.17478 0,-0.22869 0.0539,-0.0539 0.174784,0.0539 0.228688,0 0.473165,-0.47316 -0.723059,0.0185 0.228687,-0.45737 0.136364,-0.0682 0.349573,0.1078 0.457377,0 0.473165,-0.47317 -0.723056,0.0185 0.228688,-0.45738 0.06818,-0.0341 0.160506,0.0341 0.22869,0 0.09642,-0.0482 0.132265,-0.18048 0.228687,-0.22869 0.06818,-0.0341 0.160507,0.0341 0.228687,0 0.09642,-0.0482 0.132265,-0.18048 0.22869,-0.22869 0.136364,-0.0682 0.34957,0.10781 0.457375,0 0.0539,-0.0539 -0.0539,-0.17478 0,-0.22868 0.0074,-0.007 0.630602,0 0.686067,0"
       id="path92"
       inkscape:connector-curvature="0" />
    <path
       style="fill:none;stroke:#000000;stroke-width:0.26458332px;stroke-linecap:butt;stroke-linejoin:miter;stroke-opacity:1"
       d="m 43.908138,254.69266 c 0,-0.38115 0,-0.7623 0,-1.14344 0,-0.0762 0.03409,-0.16051 0,-0.22869 -0.04821,-0.0964 -0.180475,-0.13227 -0.228687,-0.22869 -0.06808,-0.13615 0.06418,-0.9509 0,-1.14344 -0.0539,-0.16171 -0.174787,-0.29567 -0.22869,-0.45738 -0.04821,-0.14463 0,-0.30492 0,-0.45737 0,-0.53361 0,-1.06722 0,-1.60082 0,-1.06721 0,-2.13443 0,-3.20164 0,-0.60983 0,-1.21967 0,-1.8295 0,-0.19362 -0.04098,-0.79181 0,-0.91476 0.03409,-0.10227 0.180477,-0.13226 0.22869,-0.22868 0.07413,-0.14827 -0.07182,-1.15668 0,-1.37213 0.0539,-0.16171 0.174786,-0.29567 0.228687,-0.45738 0.04821,-0.14463 -0.06818,-0.32101 0,-0.45738 0.04821,-0.0964 0.180478,-0.13226 0.228687,-0.22869 0.04135,-0.0827 0,-0.98437 0,-1.14343 0,-0.0762 -0.0539,-0.17479 0,-0.22869 0.0539,-0.0539 0.174787,0.0539 0.22869,0 0.107805,-0.10781 -0.107804,-0.34957 0,-0.45738 0.0539,-0.0539 0.174787,0.0539 0.228688,0 0.114345,-0.11434 -0.114345,-0.57172 0,-0.68607 0.0539,-0.0539 0.174786,0.0539 0.22869,0 0.0092,-0.009 0,-0.83076 0,-0.91475 0,-0.0762 0,-0.15246 0,-0.22869 0,-0.0762 -0.07623,-0.22869 0,-0.22869 0.07623,0 0,0.30492 0,0.22869 0,-0.15245 0,-0.30491 0,-0.45737"
       id="path94"
       inkscape:connector-curvature="0" />
    <path
       style="fill:none;stroke:#000000;stroke-width:0.26458332px;stroke-linecap:butt;stroke-linejoin:miter;stroke-opacity:1"
       d="m 54.301408,190.08197 c -0.186558,-0.4934 -0.444566,-0.96543 -0.559676,-1.48021 -0.01664,-0.0744 0.174786,0.0539 0.228687,0 0.114345,-0.11434 -0.114342,-0.57172 0,-0.68606 0.0539,-0.0539 0.174787,0.0539 0.22869,0 0.473163,-0.47317 -0.723058,0.0185 0.228688,-0.45738 0.06818,-0.0341 0.174786,0.0539 0.228687,0 0.114345,-0.11434 -0.114342,-0.57172 0,-0.68606 0.0539,-0.0539 0.174786,0.0539 0.22869,0 0.0539,-0.0539 -0.03409,-0.16051 0,-0.22869 0.483809,-0.96762 -0.02643,0.51024 0.457375,-0.45738 0.03409,-0.0682 -0.0539,-0.17479 0,-0.22869 0.0539,-0.0539 0.174786,0.0539 0.228689,0 0.0539,-0.0539 0,-0.15246 0,-0.22869 0.07623,0 0.174787,0.0539 0.228688,0 0.0539,-0.0539 -0.03409,-0.1605 0,-0.22868 0.09643,-0.19285 0.360952,-0.26453 0.457377,-0.45738 0.03409,-0.0682 -0.0539,-0.17479 0,-0.22869 0.0539,-0.0539 0.174786,0.0539 0.228687,0 0.0539,-0.0539 -0.0539,-0.17478 0,-0.22869 0.473165,-0.47316 -0.01849,0.72306 0.457378,-0.22869 0.03409,-0.0682 -0.0539,-0.17478 0,-0.22868 0.107804,-0.10781 0.34957,0.1078 0.457374,0 0.107807,-0.10781 -0.107804,-0.34958 0,-0.45738 0.0539,-0.0539 0.174787,0.0539 0.22869,0 0.0539,-0.0539 -0.03409,-0.16051 0,-0.22869 0.04821,-0.0964 0.180475,-0.13226 0.228688,-0.22869 0.03409,-0.0682 -0.0539,-0.17478 0,-0.22868 0.0539,-0.0539 0.174786,0.0539 0.228687,0 0.107807,-0.10781 -0.107805,-0.34958 0,-0.45738 0.0539,-0.0539 0.174786,0.0539 0.22869,0 0.0539,-0.0539 -0.03409,-0.16051 0,-0.22869 0.04821,-0.0964 0.180475,-0.13226 0.228687,-0.22869 0.12241,-0.24482 -0.122409,-0.21255 0,-0.45737 0.137213,-0.27443 0.548852,-0.41164 0.686065,-0.68607 0.06818,-0.13636 -0.107805,-0.34957 0,-0.45738 0.0539,-0.0539 0.174786,0.0539 0.22869,0 0.0539,-0.0539 -0.0539,-0.17478 0,-0.22868 0.0539,-0.0539 0.174783,0.0539 0.228687,0 0.114345,-0.11435 -0.114345,-0.57172 0,-0.68607 0.0539,-0.0539 0.152458,0 0.228687,0 0.07623,0 0.22869,-0.0762 0.22869,0 0,0.0762 -0.282591,0.0539 -0.22869,0 0.120531,-0.12053 0.295669,-0.17478 0.457378,-0.22868 0.07232,-0.0241 0.174786,0.0539 0.228687,0 0.0539,-0.0539 -0.0539,-0.17479 0,-0.22869 0.0539,-0.0539 0.160507,0.0341 0.22869,0 0.09642,-0.0482 0.132262,-0.18048 0.228687,-0.22869 0.06818,-0.0341 0.174786,0.0539 0.228687,0 0.473165,-0.47317 -0.723056,0.0185 0.22869,-0.45738 0.06818,-0.0341 0.160507,0.0341 0.228688,0 0.192847,-0.0964 0.26453,-0.36095 0.457377,-0.45737 0.06818,-0.0341 0.160507,0.0341 0.228687,0 0.09643,-0.0482 0.152458,-0.15246 0.228688,-0.22869 0.178625,-0.17863 0.48873,-0.55451 0.686064,-0.68607 0.115168,-0.50384 0.470456,-0.12088 0.686065,-0.22869 0.505642,-0.25282 0.07097,-0.14193 0.22869,-0.45737 0.25282,-0.50565 0.141933,-0.071 0.457374,-0.22869 0.192847,-0.0964 0.264531,-0.36095 0.457378,-0.45738 0.06818,-0.0341 0.174786,0.0539 0.228689,0 0.0539,-0.0539 -0.0539,-0.17478 0,-0.22868 0.0539,-0.0539 0.174784,0.0539 0.228688,0 0.473165,-0.47317 -0.723059,0.0185 0.228687,-0.45738 0.06818,-0.0341 0.160507,0.0341 0.22869,0 0.192847,-0.0964 0.264528,-0.36095 0.457375,-0.45738 0.06818,-0.0341 0.160507,0.0341 0.22869,0 0.09642,-0.0482 0.132262,-0.18047 0.228687,-0.22869 0.06818,-0.0341 0.174786,0.0539 0.228687,0 0.473165,-0.47316 -0.723056,0.0185 0.22869,-0.45737 0.136364,-0.0682 0.321011,0.0682 0.457375,0 0.951746,-0.47588 -0.244475,0.0158 0.22869,-0.45738 0.0539,-0.0539 0.152458,0 0.228687,0 0.07623,0 0.152458,0 0.228687,0 0.381149,0 0.762294,0 1.143442,0 0.07623,0 0.174787,0.0539 0.228688,0 0.0539,-0.0539 -0.0539,-0.17479 0,-0.22869 0.473165,-0.47316 -0.0185,0.72306 0.457377,-0.22869 0.03409,-0.0682 -0.0539,-0.17478 0,-0.22868 0.107804,-0.10781 0.321013,0.0682 0.457377,0 0.192847,-0.0964 0.264528,-0.36096 0.457375,-0.45738 0.12406,-0.062 0.85218,0.0626 0.914754,0 0.0539,-0.0539 -0.0539,-0.17479 0,-0.22869 0.107805,-0.1078 0.34957,0.10781 0.457378,0 0.304916,-0.30492 -0.381149,-0.22869 0.228687,-0.22869 0.152458,0 0.609835,0 0.457377,0 -0.152461,0 -0.609835,0 -0.457377,0 0.228687,0 0.457377,0 0.686064,0 0.07623,0 0.174787,0.0539 0.228688,0 0.0539,-0.0539 -0.0539,-0.17478 0,-0.22869 0.114345,-0.11434 0.571722,0.11435 0.686064,0 0.0539,-0.0539 -0.0539,-0.17478 0,-0.22868 0.0539,-0.0539 0.152461,0 0.22869,0 0.07623,0 0.152458,0 0.228688,0 0.07623,0 0.152458,0 0.228687,0 0.07623,0 0.203718,-0.072 0.22869,0 0.394787,1.13873 0.652065,2.32058 0.978098,3.48087"
       id="path96"
       inkscape:connector-curvature="0" />
    <path
       style="fill:none;stroke:#000000;stroke-width:0.26458332px;stroke-linecap:butt;stroke-linejoin:miter;stroke-opacity:1"
       d="m 76.445212,174.70233 c 0.74118,-0.62668 1.519275,-1.21215 2.223535,-1.88006 0.06533,-0.0619 -0.06766,-1.07578 0,-1.14344 0.0539,-0.0539 0.174786,0.0539 0.22869,0 0.0539,-0.0539 0,-0.15246 0,-0.22869 0,-0.10782 -0.01037,-1.13307 0,-1.14344 0.0539,-0.0539 0.174786,0.0539 0.228687,0 0.114345,-0.11434 -0.114342,-0.57172 0,-0.68606 0.0539,-0.0539 0.174786,0.0539 0.22869,0 0.114342,-0.11435 -0.114345,-0.57172 0,-0.68607 0.0539,-0.0539 0.174784,0.0539 0.228687,0 0.0539,-0.0539 0,-0.15245 0,-0.22868 0,-0.77186 0.01304,-0.64283 -0.269139,-1.57764"
       id="path98"
       inkscape:connector-curvature="0" />
    <path
       style="fill:none;stroke:#000000;stroke-width:0.26458332px;stroke-linecap:butt;stroke-linejoin:miter;stroke-opacity:1"
       d="m 136.75556,231.36646 c -0.76758,-0.19054 -1.55013,-0.39137 -2.28688,-0.68607 -0.15827,-0.0633 -0.28925,-0.20066 -0.45738,-0.22868 -0.30077,-0.0501 -0.61894,0.0739 -0.91476,0 -0.33073,-0.0827 -0.58585,-0.36768 -0.91475,-0.45738 -0.52003,-0.14183 -1.06806,-0.14673 -1.60081,-0.22869 -1.26789,-0.19506 -1.32624,-0.21951 -2.51558,-0.45738 -0.38114,-0.0762 -0.76101,-0.15915 -1.14344,-0.22868 -0.4562,-0.0829 -0.93636,-0.0702 -1.37213,-0.22869 -0.41773,-0.1519 -0.73726,-0.50554 -1.14344,-0.68607 -0.58015,-0.25784 -1.762,-0.29991 -2.28688,-0.45737 -0.32653,-0.098 -0.59555,-0.33768 -0.91475,-0.45738 -0.58858,-0.22072 -1.22509,-0.28469 -1.82951,-0.45738 -0.99998,-0.2857 -1.94815,-0.70979 -2.97295,-0.91475 -0.0747,-0.0149 -0.15245,0 -0.22868,0 -0.45738,0 -0.91476,0 -1.37213,0 -0.0762,0 -0.15474,0.0185 -0.22869,0 -0.23386,-0.0585 -0.44969,-0.18141 -0.68606,-0.22869 -0.1495,-0.0299 -0.31275,0.0482 -0.45738,0 -0.10227,-0.0341 -0.12642,-0.19459 -0.22869,-0.22869 -0.28927,-0.0964 -0.62548,0.0964 -0.91475,0 -0.10228,-0.0341 -0.13227,-0.18047 -0.22869,-0.22868 -0.0682,-0.0341 -0.15637,0.0241 -0.22869,0 -0.32341,-0.10781 -0.59134,-0.34958 -0.91475,-0.45738 -0.14464,-0.0482 -0.31274,0.0482 -0.45738,0 -1.65648,-0.55216 0.36055,0.0659 -0.68606,-0.45738 -0.0682,-0.0341 -0.17479,0.0539 -0.22869,0 -0.0539,-0.0539 0.0682,-0.19459 0,-0.22868 -0.0715,-0.0358 -1.23042,0 -1.37213,0 -0.0762,0 -0.16051,0.0341 -0.22869,0 -0.0964,-0.0482 -0.13226,-0.18048 -0.22869,-0.22869 -0.18295,-0.0915 -0.50311,0.0915 -0.68606,0 -0.0964,-0.0482 -0.13227,-0.18048 -0.22869,-0.22869 -0.14427,-0.0721 -0.99917,0.0721 -1.14344,0 -0.0964,-0.0482 -0.13227,-0.18048 -0.22869,-0.22869 -0.13636,-0.0682 -0.32101,0.0682 -0.45738,0 -0.0964,-0.0482 -0.13226,-0.18048 -0.22868,-0.22869 -0.13637,-0.0682 -0.31275,0.0482 -0.45738,0 -0.16171,-0.0539 -0.29567,-0.17478 -0.45738,-0.22869 -0.34303,-0.11434 -0.22869,0.22869 -0.68606,0 -0.0682,-0.0341 0.0539,-0.17478 0,-0.22868 -0.0539,-0.0539 -0.15637,0.0241 -0.22869,0 -0.16171,-0.0539 -0.29567,-0.17479 -0.45738,-0.22869 -0.0723,-0.0241 -0.1605,0.0341 -0.22869,0 -0.0964,-0.0482 -0.13226,-0.18048 -0.22868,-0.22869 -0.0907,-0.0453 -0.63932,0.0468 -0.68607,0 -0.0539,-0.0539 0.0539,-0.17478 0,-0.22869 -0.0539,-0.0539 -0.17478,0.0539 -0.22869,0 -0.0539,-0.0539 0.0539,-0.17478 0,-0.22869 -0.0539,-0.0539 -0.17478,0.0539 -0.22868,0 -0.0539,-0.0539 0.0341,-0.1605 0,-0.22869 -0.0482,-0.0964 -0.15246,-0.15245 -0.22869,-0.22868 -0.0762,-0.0762 -0.13227,-0.18048 -0.22869,-0.22869 -0.13637,-0.0682 -0.32102,0.0682 -0.457376,0 -0.09642,-0.0482 -0.132265,-0.18048 -0.22869,-0.22869 -0.06818,-0.0341 -0.174787,0.0539 -0.228687,0 -0.0539,-0.0539 0.0539,-0.17479 0,-0.22869 -0.04675,-0.0468 -0.595392,0.0453 -0.686065,0 -0.09642,-0.0482 -0.132265,-0.18048 -0.22869,-0.22868 -0.06818,-0.0341 -0.174784,0.0539 -0.228687,0 -0.0539,-0.0539 0.0539,-0.17479 0,-0.22869 -0.0539,-0.0539 -0.160507,0.0341 -0.228688,0 -0.09642,-0.0482 -0.132265,-0.18048 -0.22869,-0.22869 -0.0696,-0.0348 -0.583072,0 -0.686064,0 -0.630939,0 -0.293518,0 -1.143439,0 -0.457378,0 -0.914755,0 -1.372129,0 -0.07623,0 -0.22869,0.0762 -0.22869,0 0,-0.0762 0.152458,0 0.22869,0"
       id="path100"
       inkscape:connector-curvature="0" />
  </g>
</svg>
